<svg xmlns="http://www.w3.org/2000/svg" xmlns:xlink="http://www.w3.org/1999/xlink" width="714" zoomAndPan="magnify" viewBox="0 0 535.5 365.249998" height="487" preserveAspectRatio="xMidYMid meet" version="1.0"><defs><g/><clipPath id="b5701c5e10"><path d="M 30 38 L 498 38 L 498 364.5 L 30 364.5 Z M 30 38 " clip-rule="nonzero"/></clipPath><clipPath id="6272baa9ff"><path d="M 0.238281 248 L 4 248 L 4 261 L 0.238281 261 Z M 0.238281 248 " clip-rule="nonzero"/></clipPath><clipPath id="e6363445a3"><path d="M 0.308594 183.046875 L 143.273438 183.046875 L 143.273438 326 L 0.308594 326 Z M 0.308594 183.046875 " clip-rule="nonzero"/></clipPath><clipPath id="50dcfaf4f1"><path d="M 235.027344 183.046875 L 249.808594 183.046875 L 249.808594 197.832031 L 235.027344 197.832031 Z M 235.027344 183.046875 " clip-rule="nonzero"/></clipPath><clipPath id="273d9f9aba"><path d="M 242.417969 183.046875 C 238.335938 183.046875 235.027344 186.355469 235.027344 190.4375 C 235.027344 194.523438 238.335938 197.832031 242.417969 197.832031 C 246.5 197.832031 249.808594 194.523438 249.808594 190.4375 C 249.808594 186.355469 246.5 183.046875 242.417969 183.046875 Z M 242.417969 183.046875 " clip-rule="nonzero"/></clipPath><clipPath id="d1c62427c1"><path d="M 0.0273438 0.046875 L 14.808594 0.046875 L 14.808594 14.832031 L 0.0273438 14.832031 Z M 0.0273438 0.046875 " clip-rule="nonzero"/></clipPath><clipPath id="c9a919bc66"><path d="M 7.417969 0.046875 C 3.335938 0.046875 0.0273438 3.355469 0.0273438 7.4375 C 0.0273438 11.523438 3.335938 14.832031 7.417969 14.832031 C 11.5 14.832031 14.808594 11.523438 14.808594 7.4375 C 14.808594 3.355469 11.5 0.046875 7.417969 0.046875 Z M 7.417969 0.046875 " clip-rule="nonzero"/></clipPath><clipPath id="320c78cb4d"><rect x="0" width="15" y="0" height="15"/></clipPath><clipPath id="4834ba4664"><path d="M 0.238281 0.5625 L 467.519531 0.5625 L 467.519531 175 L 0.238281 175 Z M 0.238281 0.5625 " clip-rule="nonzero"/></clipPath><clipPath id="4bf4af9cc8"><rect x="0" width="468" y="0" height="175"/></clipPath><clipPath id="43d2c203e1"><rect x="0" width="468" y="0" height="327"/></clipPath></defs><g clip-path="url(#b5701c5e10)"><g transform="matrix(1, 0, 0, 1, 30, 38)"><g clip-path="url(#43d2c203e1)"><path stroke-linecap="butt" transform="matrix(0.479746, 0, 0, 0.479746, 0.606751, 253.055987)" fill="none" stroke-linejoin="miter" d="M 4.500032 3.001807 L 514.950342 3.001807 " stroke="#ff751f" stroke-width="6" stroke-opacity="1" stroke-miterlimit="4"/><g clip-path="url(#6272baa9ff)"><path stroke-linecap="round" transform="matrix(0.479746, 0, 0, 0.479746, 0.606751, 253.055987)" fill="none" stroke-linejoin="round" d="M 3.001844 -6.003601 L 3.001844 11.999073 " stroke="#ff751f" stroke-width="6" stroke-opacity="1" stroke-miterlimit="4"/></g><path stroke-linecap="round" transform="matrix(0.479746, 0, 0, 0.479746, 0.606751, 253.055987)" fill="none" stroke-linejoin="round" d="M 516.448529 -6.003601 L 516.448529 11.999073 " stroke="#ff751f" stroke-width="6" stroke-opacity="1" stroke-miterlimit="4"/><path stroke-linecap="butt" transform="matrix(0, -0.479746, 0.479746, 0, 70.312962, 325.939978)" fill="none" stroke-linejoin="miter" d="M 4.499728 3.003554 L 293.356744 3.003554 " stroke="#ff751f" stroke-width="6" stroke-opacity="1" stroke-miterlimit="4"/><path stroke-linecap="round" transform="matrix(0, -0.479746, 0.479746, 0, 70.312962, 325.939978)" fill="none" stroke-linejoin="round" d="M 3.001541 -6.001855 L 3.001541 12.000819 " stroke="#ff751f" stroke-width="6" stroke-opacity="1" stroke-miterlimit="4"/><path stroke-linecap="round" transform="matrix(0, -0.479746, 0.479746, 0, 70.312962, 325.939978)" fill="none" stroke-linejoin="round" d="M 294.854931 -6.001855 L 294.854931 12.000819 " stroke="#ff751f" stroke-width="6" stroke-opacity="1" stroke-miterlimit="4"/><g clip-path="url(#e6363445a3)"><path fill="#ffffff" d="M 73.5 221.277344 C 73.605469 222.277344 73.757812 223.265625 73.949219 224.25 C 74.144531 225.234375 74.378906 226.207031 74.652344 227.171875 C 74.925781 228.136719 75.242188 229.085938 75.597656 230.023438 C 75.953125 230.960938 76.347656 231.882812 76.78125 232.785156 C 77.214844 233.691406 77.6875 234.574219 78.195312 235.441406 C 78.703125 236.304688 79.246094 237.144531 79.824219 237.964844 C 80.40625 238.78125 81.019531 239.574219 81.664062 240.339844 C 82.3125 241.105469 82.988281 241.84375 83.699219 242.554688 C 84.40625 243.261719 85.144531 243.941406 85.910156 244.585938 C 86.675781 245.234375 87.46875 245.847656 88.289062 246.425781 C 89.105469 247.003906 89.945312 247.546875 90.8125 248.058594 C 91.675781 248.566406 92.558594 249.035156 93.464844 249.46875 C 94.367188 249.902344 95.289062 250.296875 96.226562 250.652344 C 97.164062 251.007812 98.113281 251.324219 99.078125 251.597656 C 100.042969 251.875 101.015625 252.109375 102 252.300781 C 102.984375 252.492188 103.976562 252.644531 104.972656 252.753906 C 114.632812 253.8125 127.105469 254.496094 143.203125 254.496094 C 127.105469 254.496094 114.632812 255.179688 104.972656 256.238281 C 103.976562 256.347656 102.984375 256.496094 102 256.691406 C 101.015625 256.882812 100.042969 257.117188 99.078125 257.390625 C 98.113281 257.667969 97.164062 257.984375 96.226562 258.339844 C 95.289062 258.695312 94.367188 259.089844 93.464844 259.519531 C 92.558594 259.953125 91.675781 260.425781 90.8125 260.933594 C 89.945312 261.441406 89.105469 261.984375 88.289062 262.566406 C 87.46875 263.144531 86.675781 263.757812 85.910156 264.40625 C 85.144531 265.050781 84.40625 265.730469 83.699219 266.4375 C 82.988281 267.148438 82.3125 267.882812 81.664062 268.652344 C 81.019531 269.417969 80.40625 270.210938 79.824219 271.027344 C 79.246094 271.847656 78.703125 272.6875 78.195312 273.550781 C 77.6875 274.414062 77.214844 275.300781 76.78125 276.203125 C 76.347656 277.109375 75.953125 278.027344 75.597656 278.964844 C 75.242188 279.902344 74.925781 280.855469 74.652344 281.820312 C 74.378906 282.78125 74.144531 283.757812 73.949219 284.742188 C 73.757812 285.726562 73.605469 286.714844 73.5 287.710938 C 72.441406 297.371094 71.753906 309.84375 71.753906 325.945312 C 71.753906 309.84375 71.070312 297.371094 70.011719 287.710938 C 69.902344 286.714844 69.753906 285.726562 69.5625 284.742188 C 69.367188 283.757812 69.132812 282.78125 68.859375 281.820312 C 68.585938 280.855469 68.269531 279.902344 67.914062 278.964844 C 67.558594 278.027344 67.164062 277.109375 66.730469 276.203125 C 66.296875 275.300781 65.824219 274.414062 65.316406 273.550781 C 64.808594 272.6875 64.265625 271.847656 63.683594 271.027344 C 63.105469 270.210938 62.492188 269.417969 61.847656 268.652344 C 61.199219 267.882812 60.523438 267.148438 59.8125 266.4375 C 59.105469 265.730469 58.367188 265.050781 57.601562 264.40625 C 56.832031 263.757812 56.042969 263.144531 55.222656 262.566406 C 54.40625 261.984375 53.5625 261.441406 52.699219 260.933594 C 51.835938 260.425781 50.949219 259.953125 50.046875 259.519531 C 49.144531 259.089844 48.222656 258.695312 47.285156 258.339844 C 46.347656 257.984375 45.394531 257.667969 44.433594 257.390625 C 43.46875 257.117188 42.492188 256.882812 41.511719 256.691406 C 40.527344 256.5 39.535156 256.347656 38.539062 256.238281 C 28.878906 255.179688 16.40625 254.496094 0.308594 254.496094 C 16.40625 254.496094 28.878906 253.8125 38.539062 252.753906 C 39.535156 252.644531 40.527344 252.492188 41.511719 252.300781 C 42.492188 252.109375 43.46875 251.875 44.433594 251.597656 C 45.394531 251.324219 46.347656 251.007812 47.285156 250.652344 C 48.222656 250.296875 49.144531 249.902344 50.046875 249.46875 C 50.949219 249.035156 51.835938 248.566406 52.699219 248.058594 C 53.5625 247.546875 54.40625 247.003906 55.222656 246.425781 C 56.042969 245.847656 56.832031 245.234375 57.601562 244.585938 C 58.367188 243.941406 59.105469 243.261719 59.8125 242.554688 C 60.523438 241.84375 61.199219 241.105469 61.847656 240.339844 C 62.492188 239.574219 63.105469 238.78125 63.683594 237.964844 C 64.265625 237.144531 64.808594 236.304688 65.316406 235.441406 C 65.824219 234.574219 66.296875 233.691406 66.730469 232.785156 C 67.164062 231.882812 67.558594 230.960938 67.914062 230.023438 C 68.269531 229.085938 68.585938 228.136719 68.859375 227.171875 C 69.132812 226.207031 69.367188 225.234375 69.5625 224.25 C 69.753906 223.265625 69.902344 222.277344 70.011719 221.277344 C 71.070312 211.617188 71.753906 199.148438 71.753906 183.046875 C 71.753906 199.148438 72.441406 211.617188 73.5 221.277344 Z M 73.5 221.277344 " fill-opacity="1" fill-rule="nonzero"/></g><g clip-path="url(#50dcfaf4f1)"><g clip-path="url(#273d9f9aba)"><g transform="matrix(1, 0, 0, 1, 235, 183)"><g clip-path="url(#320c78cb4d)"><g clip-path="url(#d1c62427c1)"><g clip-path="url(#c9a919bc66)"><path fill="#ff751f" d="M 0.0273438 0.046875 L 14.808594 0.046875 L 14.808594 14.832031 L 0.0273438 14.832031 Z M 0.0273438 0.046875 " fill-opacity="1" fill-rule="nonzero"/></g></g></g></g></g></g><g clip-path="url(#4834ba4664)"><g transform="matrix(1, 0, 0, 1, 0, -0.000000000000049738)"><g clip-path="url(#4bf4af9cc8)"><g fill="#ffffff" fill-opacity="1"><g transform="translate(0.307463, 66.558504)"><g><path d="M 68.53125 0 L 13.109375 0 L 13.109375 -64.890625 L 66.625 -64.890625 L 66.625 -57.234375 L 20.84375 -57.234375 L 20.84375 -37.4375 L 44.90625 -37.4375 L 44.90625 -29.796875 L 20.84375 -29.796875 L 20.84375 -7.640625 L 68.53125 -7.640625 Z M 68.53125 0 "/></g></g></g><g fill="#ffffff" fill-opacity="1"><g transform="translate(70.477841, 66.558504)"><g><path d="M 20.765625 0 L 13.109375 0 L 13.109375 -45 L 20.765625 -45 L 37.875 -19.109375 L 54.984375 -45 L 62.53125 -45 L 62.53125 0 L 54.890625 0 L 54.890625 -31.609375 L 37.875 -6.34375 L 20.765625 -31.609375 Z M 20.765625 0 "/></g></g></g><g fill="#ffffff" fill-opacity="1"><g transform="translate(142.211431, 66.558504)"><g><path d="M 12.6875 0 L 12.6875 -45 L 40.21875 -45 C 42.125 -45 43.597656 -44.9375 44.640625 -44.8125 C 45.679688 -44.695312 46.550781 -44.507812 47.25 -44.25 C 47.945312 -43.988281 48.757812 -43.570312 49.6875 -43 C 51.707031 -41.78125 53.28125 -40.007812 54.40625 -37.6875 C 55.539062 -35.375 56.109375 -32.972656 56.109375 -30.484375 C 56.109375 -28.347656 55.734375 -26.351562 54.984375 -24.5 C 54.234375 -22.644531 53.101562 -21.050781 51.59375 -19.71875 C 50.375 -18.613281 49.226562 -17.828125 48.15625 -17.359375 C 47.09375 -16.898438 45.847656 -16.613281 44.421875 -16.5 C 43.003906 -16.382812 40.789062 -16.328125 37.78125 -16.328125 L 20.328125 -16.328125 L 20.328125 0 Z M 37.78125 -23.96875 C 40.625 -23.96875 42.78125 -24.140625 44.25 -24.484375 C 45.726562 -24.835938 46.800781 -25.460938 47.46875 -26.359375 C 48.132812 -27.253906 48.46875 -28.628906 48.46875 -30.484375 C 48.46875 -32.335938 48.117188 -33.753906 47.421875 -34.734375 C 46.734375 -35.722656 45.691406 -36.40625 44.296875 -36.78125 C 42.910156 -37.15625 41.03125 -37.34375 38.65625 -37.34375 L 20.328125 -37.34375 L 20.328125 -23.96875 Z M 37.78125 -23.96875 "/></g></g></g><g fill="#ffffff" fill-opacity="1"><g transform="translate(199.528746, 66.558504)"><g><path d="M 35.78125 1.5625 C 31.03125 1.5625 26.585938 0.605469 22.453125 -1.296875 C 18.316406 -3.210938 14.988281 -5.960938 12.46875 -9.546875 C 9.945312 -13.140625 8.6875 -17.34375 8.6875 -22.15625 L 8.6875 -23.359375 C 8.6875 -28.222656 10.003906 -32.378906 12.640625 -35.828125 C 15.273438 -39.273438 18.71875 -41.878906 22.96875 -43.640625 C 27.226562 -45.410156 31.734375 -46.296875 36.484375 -46.296875 C 41.285156 -46.296875 45.785156 -45.351562 49.984375 -43.46875 C 54.179688 -41.59375 57.539062 -38.875 60.0625 -35.3125 C 62.582031 -31.75 63.84375 -27.503906 63.84375 -22.578125 C 63.84375 -17.660156 62.523438 -13.363281 59.890625 -9.6875 C 57.253906 -6.007812 53.789062 -3.210938 49.5 -1.296875 C 45.21875 0.605469 40.644531 1.5625 35.78125 1.5625 Z M 35.875 -6.25 C 39.289062 -6.25 42.546875 -6.859375 45.640625 -8.078125 C 48.742188 -9.296875 51.265625 -11.132812 53.203125 -13.59375 C 55.140625 -16.050781 56.109375 -19.019531 56.109375 -22.5 C 56.109375 -26.03125 55.179688 -28.984375 53.328125 -31.359375 C 51.472656 -33.734375 49.039062 -35.515625 46.03125 -36.703125 C 43.019531 -37.890625 39.804688 -38.484375 36.390625 -38.484375 C 32.972656 -38.484375 29.742188 -37.875 26.703125 -36.65625 C 23.671875 -35.4375 21.195312 -33.597656 19.28125 -31.140625 C 17.375 -28.679688 16.421875 -25.710938 16.421875 -22.234375 C 16.421875 -18.765625 17.332031 -15.828125 19.15625 -13.421875 C 20.976562 -11.015625 23.378906 -9.21875 26.359375 -8.03125 C 29.335938 -6.84375 32.507812 -6.25 35.875 -6.25 Z M 35.875 -6.25 "/></g></g></g><g fill="#ffffff" fill-opacity="1"><g transform="translate(268.04907, 66.558504)"><g><path d="M 12.59375 0 L 12.59375 -45 L 40.390625 -45 C 45.546875 -45 49.6875 -43.984375 52.8125 -41.953125 C 55.9375 -39.921875 57.5 -36.503906 57.5 -31.703125 C 57.5 -27.941406 56.425781 -24.929688 54.28125 -22.671875 C 52.144531 -20.410156 49.191406 -19.050781 45.421875 -18.59375 L 58.546875 0 L 49.078125 0 L 36.046875 -18.421875 L 20.328125 -18.421875 L 20.328125 0 Z M 41.171875 -26.0625 C 43.773438 -26.0625 45.875 -26.476562 47.46875 -27.3125 C 49.0625 -28.15625 49.859375 -29.734375 49.859375 -32.046875 C 49.859375 -33.378906 49.597656 -34.421875 49.078125 -35.171875 C 48.554688 -35.929688 47.644531 -36.484375 46.34375 -36.828125 C 45.039062 -37.171875 43.171875 -37.34375 40.734375 -37.34375 L 20.328125 -37.34375 L 20.328125 -26.0625 Z M 41.171875 -26.0625 "/></g></g></g><g fill="#ffffff" fill-opacity="1"><g transform="translate(326.929597, 66.558504)"><g><path d="M 35.78125 1.5625 C 31.03125 1.5625 26.585938 0.605469 22.453125 -1.296875 C 18.316406 -3.210938 14.988281 -5.960938 12.46875 -9.546875 C 9.945312 -13.140625 8.6875 -17.34375 8.6875 -22.15625 L 8.6875 -23.359375 C 8.6875 -28.222656 10.003906 -32.378906 12.640625 -35.828125 C 15.273438 -39.273438 18.71875 -41.878906 22.96875 -43.640625 C 27.226562 -45.410156 31.734375 -46.296875 36.484375 -46.296875 C 41.285156 -46.296875 45.785156 -45.351562 49.984375 -43.46875 C 54.179688 -41.59375 57.539062 -38.875 60.0625 -35.3125 C 62.582031 -31.75 63.84375 -27.503906 63.84375 -22.578125 C 63.84375 -17.660156 62.523438 -13.363281 59.890625 -9.6875 C 57.253906 -6.007812 53.789062 -3.210938 49.5 -1.296875 C 45.21875 0.605469 40.644531 1.5625 35.78125 1.5625 Z M 35.875 -6.25 C 39.289062 -6.25 42.546875 -6.859375 45.640625 -8.078125 C 48.742188 -9.296875 51.265625 -11.132812 53.203125 -13.59375 C 55.140625 -16.050781 56.109375 -19.019531 56.109375 -22.5 C 56.109375 -26.03125 55.179688 -28.984375 53.328125 -31.359375 C 51.472656 -33.734375 49.039062 -35.515625 46.03125 -36.703125 C 43.019531 -37.890625 39.804688 -38.484375 36.390625 -38.484375 C 32.972656 -38.484375 29.742188 -37.875 26.703125 -36.65625 C 23.671875 -35.4375 21.195312 -33.597656 19.28125 -31.140625 C 17.375 -28.679688 16.421875 -25.710938 16.421875 -22.234375 C 16.421875 -18.765625 17.332031 -15.828125 19.15625 -13.421875 C 20.976562 -11.015625 23.378906 -9.21875 26.359375 -8.03125 C 29.335938 -6.84375 32.507812 -6.25 35.875 -6.25 Z M 35.875 -6.25 "/></g></g></g><g fill="#ffffff" fill-opacity="1"><g transform="translate(395.449921, 66.558504)"><g><path d="M 20.765625 0 L 13.109375 0 L 13.109375 -45 L 20.765625 -45 L 37.875 -19.109375 L 54.984375 -45 L 62.53125 -45 L 62.53125 0 L 54.890625 0 L 54.890625 -31.609375 L 37.875 -6.34375 L 20.765625 -31.609375 Z M 20.765625 0 "/></g></g></g><g fill="#ffffff" fill-opacity="1"><g transform="translate(0.307463, 153.380221)"><g><path d="M 20.5 0 L 12.859375 0 L 12.859375 -64.890625 L 20.671875 -64.890625 L 44.734375 -21.015625 L 69.578125 -64.890625 L 77.125 -64.890625 L 77.125 0 L 69.40625 0 L 69.40625 -49.6875 L 44.734375 -5.46875 L 20.5 -49.6875 Z M 20.5 0 "/></g></g></g><g fill="#ffffff" fill-opacity="1"><g transform="translate(86.54418, 153.380221)"><g><path d="M 54.03125 0 L 13.546875 0 L 13.546875 -45 L 53.15625 -45 L 53.15625 -37.34375 L 21.1875 -37.34375 L 21.1875 -27.015625 L 38.734375 -27.015625 L 38.734375 -19.375 L 21.1875 -19.375 L 21.1875 -7.640625 L 54.03125 -7.640625 Z M 54.03125 0 "/></g></g></g><g fill="#ffffff" fill-opacity="1"><g transform="translate(142.211441, 153.380221)"><g><path d="M 12.9375 0 L 12.9375 -45 L 37.609375 -45 C 42.410156 -45 46.550781 -44.015625 50.03125 -42.046875 C 53.507812 -40.078125 56.128906 -37.394531 57.890625 -34 C 59.660156 -30.613281 60.546875 -26.835938 60.546875 -22.671875 C 60.546875 -18.097656 59.601562 -14.101562 57.71875 -10.6875 C 55.832031 -7.269531 53.148438 -4.632812 49.671875 -2.78125 C 46.203125 -0.925781 42.179688 0 37.609375 0 Z M 37.609375 -7.640625 C 40.617188 -7.640625 43.28125 -8.25 45.59375 -9.46875 C 47.914062 -10.6875 49.710938 -12.410156 50.984375 -14.640625 C 52.253906 -16.867188 52.890625 -19.515625 52.890625 -22.578125 C 52.890625 -27.390625 51.53125 -31.050781 48.8125 -33.5625 C 46.09375 -36.082031 42.359375 -37.34375 37.609375 -37.34375 L 20.578125 -37.34375 L 20.578125 -7.640625 Z M 37.609375 -7.640625 "/></g></g></g><g fill="#ffffff" fill-opacity="1"><g transform="translate(204.305223, 153.380221)"><g><path d="M 20.84375 0 L 13.203125 0 L 13.203125 -45 L 20.84375 -45 Z M 20.84375 0 "/></g></g></g><g fill="#ffffff" fill-opacity="1"><g transform="translate(234.266358, 153.380221)"><g><path d="M 10.25 0 L 1.5625 0 L 25.890625 -45 L 33.53125 -45 L 58.015625 0 L 48.984375 0 L 43.25 -10.515625 L 15.8125 -10.515625 Z M 29.625 -36.390625 L 19.796875 -18.0625 L 39.4375 -18.0625 Z M 29.625 -36.390625 "/></g></g></g><g fill="#ffffff" fill-opacity="1"><g transform="translate(289.933619, 153.380221)"><g><path d="M 16.15625 2 C 15.050781 2 14.035156 1.738281 13.109375 1.21875 C 12.179688 0.695312 11.441406 -0.0078125 10.890625 -0.90625 C 10.347656 -1.8125 10.078125 -2.8125 10.078125 -3.90625 C 10.078125 -4.945312 10.347656 -5.929688 10.890625 -6.859375 C 11.441406 -7.785156 12.164062 -8.523438 13.0625 -9.078125 C 13.96875 -9.628906 14.941406 -9.90625 15.984375 -9.90625 C 17.078125 -9.90625 18.085938 -9.628906 19.015625 -9.078125 C 19.941406 -8.523438 20.679688 -7.800781 21.234375 -6.90625 C 21.785156 -6.007812 22.0625 -5.007812 22.0625 -3.90625 C 22.0625 -2.8125 21.800781 -1.8125 21.28125 -0.90625 C 20.757812 -0.0078125 20.035156 0.695312 19.109375 1.21875 C 18.179688 1.738281 17.195312 2 16.15625 2 Z M 16.15625 2 "/></g></g></g></g></g></g></g></g></g></svg>